<?xml version="1.0" encoding="utf-8"?><svg xmlns="http://www.w3.org/2000/svg" xmlns:xlink="http://www.w3.org/1999/xlink" width="1604" height="657" preserveAspectRatio="xMidYMid" viewBox="0 0 1604 657" style="z-index:1;margin-right:-2px;display:block;background-repeat-y:initial;background-repeat-x:initial;background-color:rgba(255, 255, 255, 0);animation-play-state:paused" ><g transform="translate(802,328.5) scale(1,1) translate(-802,-328.5)" style="transform:matrix(1, 0, 0, 1, 0, 0);animation-play-state:paused" ><defs style="animation-play-state:paused" ><filter id="blur-az1u9jua0tf-1" x="-1" y="-1" width="3" height="3" style="animation-play-state:paused" ><feGaussianBlur stdDeviation="3" style="animation-play-state:paused" ></feGaussianBlur></filter>
<filter id="blur-az1u9jua0tf-2" x="-1" y="-1" width="3" height="3" style="animation-play-state:paused" ><feGaussianBlur stdDeviation="1.5" style="animation-play-state:paused" ></feGaussianBlur></filter>
<filter id="blur-az1u9jua0tf-3" x="-1" y="-1" width="3" height="3" style="animation-play-state:paused" ><feGaussianBlur stdDeviation="1" style="animation-play-state:paused" ></feGaussianBlur></filter></defs>
<circle cx="29.610487351682377" cy="0" transform="matrix(1,0,0,1,0,278.69091796875)" r="16.371072960878895" fill="#ddeeff" opacity="0.63" style="transform:matrix(1, 0, 0, 1, 0, 278.691);opacity:0.63;animation-play-state:paused" ></circle>
<circle cx="134.81428982774955" cy="0" transform="matrix(1,0,0,1,0,669.214599609375)" r="13.686572286532762" fill="#bbddff" opacity="0.63" style="transform:matrix(1, 0, 0, 1, 0, 669.215);opacity:0.63;animation-play-state:paused" ></circle>
<circle cx="121.66838405193266" cy="0" transform="matrix(1,0,0,1,0,-15.994873046875)" r="17.455774184756" fill="#ddeeff" opacity="0.7200000000000001" style="transform:matrix(1, 0, 0, 1, 0, -15.9949);opacity:0.72;animation-play-state:paused" ></circle>
<circle cx="1429.0601979691266" cy="0" transform="matrix(1,0,0,1,0,84.3516845703125)" r="8.071372091649737" fill="#ddeeff" opacity="0.36000000000000004" style="transform:matrix(1, 0, 0, 1, 0, 84.3517);opacity:0.36;animation-play-state:paused" ></circle>
<circle cx="595.1949523718419" cy="0" transform="matrix(1,0,0,1,0,637.0493774414062)" r="17.557882697979807" fill="#ddeeff" opacity="0.7200000000000001" style="transform:matrix(1, 0, 0, 1, 0, 637.049);opacity:0.72;animation-play-state:paused" ></circle>
<circle cx="886.6202073050885" cy="0" transform="matrix(1,0,0,1,0,281.0411376953125)" r="16.247801706020503" fill="#ddeeff" opacity="0.63" style="transform:matrix(1, 0, 0, 1, 0, 281.041);opacity:0.63;animation-play-state:paused" ></circle>
<circle cx="457.9549942752618" cy="0" transform="matrix(1,0,0,1,0,668.4077758789062)" r="12.30867722567169" fill="#ddeeff" opacity="0.63" style="transform:matrix(1, 0, 0, 1, 0, 668.408);opacity:0.63;animation-play-state:paused" ></circle>
<circle cx="57.57901094186406" cy="0" transform="matrix(1,0,0,1,0,482.050048828125)" r="6.076761708712067" fill="#bbddff" opacity="0.36000000000000004" style="transform:matrix(1, 0, 0, 1, 0, 482.05);opacity:0.36;animation-play-state:paused" ></circle>
<circle cx="1222.4140838577293" cy="0" transform="matrix(1,0,0,1,0,350.9853515625)" r="13.72552271687305" fill="#ddeeff" opacity="0.63" style="transform:matrix(1, 0, 0, 1, 0, 350.985);opacity:0.63;animation-play-state:paused" ></circle>
<circle cx="907.1755630288353" cy="0" transform="matrix(1,0,0,1,0,596.3133544921875)" r="18.07384272442929" fill="#ddeeff" opacity="0.7200000000000001" style="transform:matrix(1, 0, 0, 1, 0, 596.313);opacity:0.72;animation-play-state:paused" ></circle>
<circle cx="145.21748460816966" cy="0" transform="matrix(1,0,0,1,0,299.6079406738281)" r="12.822504274039435" fill="#ddeeff" opacity="0.63" style="transform:matrix(1, 0, 0, 1, 0, 299.608);opacity:0.63;animation-play-state:paused" ></circle>
<circle cx="1440.6980472635053" cy="0" transform="matrix(1,0,0,1,0,540.1905517578125)" r="21.39564263429073" fill="#ddeeff" opacity="0.7200000000000001" style="transform:matrix(1, 0, 0, 1, 0, 540.191);opacity:0.72;animation-play-state:paused" ></circle>
<circle cx="731.6002820112589" cy="0" transform="matrix(1,0,0,1,0,26.49432373046875)" r="20.38510102565513" fill="#ddeeff" opacity="0.7200000000000001" style="transform:matrix(1, 0, 0, 1, 0, 26.4943);opacity:0.72;animation-play-state:paused" ></circle>
<circle cx="561.8148287805584" cy="0" transform="matrix(1,0,0,1,0,375.2911376953125)" r="18.446719152649973" fill="#ddeeff" opacity="0.7200000000000001" style="transform:matrix(1, 0, 0, 1, 0, 375.291);opacity:0.72;animation-play-state:paused" ></circle>
<circle cx="1280.331596721768" cy="0" transform="matrix(1,0,0,1,0,260.2598876953125)" r="12.174989376513668" fill="#ddeeff" opacity="0.63" style="transform:matrix(1, 0, 0, 1, 0, 260.26);opacity:0.63;animation-play-state:paused" ></circle>
<circle cx="1296.1649112912864" cy="0" transform="matrix(1,0,0,1,0,127.06719970703125)" r="19.400101468170835" fill="#ddeeff" opacity="0.7200000000000001" style="transform:matrix(1, 0, 0, 1, 0, 127.067);opacity:0.72;animation-play-state:paused" ></circle>
<circle cx="1260.8132998469794" cy="0" transform="matrix(1,0,0,1,0,543.5984497070312)" r="17.96014607232035" fill="#ddeeff" opacity="0.7200000000000001" style="transform:matrix(1, 0, 0, 1, 0, 543.598);opacity:0.72;animation-play-state:paused" ></circle>
<circle cx="530.0022069431285" cy="0" transform="matrix(1,0,0,1,0,203.45608520507812)" r="13.8653868651783" fill="#ddeeff" opacity="0.63" style="transform:matrix(1, 0, 0, 1, 0, 203.456);opacity:0.63;animation-play-state:paused" ></circle>
<circle cx="933.4083070039916" cy="0" transform="matrix(1,0,0,1,0,58.8111572265625)" r="16.41183625480322" fill="#ddeeff" opacity="0.63" style="transform:matrix(1, 0, 0, 1, 0, 58.8112);opacity:0.63;animation-play-state:paused" ></circle>
<circle cx="668.3725780152059" cy="0" transform="matrix(1,0,0,1,0,422.65771484375)" r="13.066147418314722" fill="#bbddff" opacity="0.63" style="transform:matrix(1, 0, 0, 1, 0, 422.658);opacity:0.63;animation-play-state:paused" ></circle>
<circle cx="1524.0598192504947" cy="0" transform="matrix(1,0,0,1,0,488.86932373046875)" r="17.523283678149898" fill="#bbddff" opacity="0.7200000000000001" style="transform:matrix(1, 0, 0, 1, 0, 488.869);opacity:0.72;animation-play-state:paused" ></circle>
<circle cx="89.54375008220931" cy="0" transform="matrix(1,0,0,1,0,31.11846923828125)" r="8.941425311911336" fill="#bbddff" opacity="0.36000000000000004" style="transform:matrix(1, 0, 0, 1, 0, 31.1185);opacity:0.36;animation-play-state:paused" ></circle>
<circle cx="1330.4216184799882" cy="0" transform="matrix(1,0,0,1,0,93.461181640625)" r="17.783667281825217" fill="#ddeeff" opacity="0.7200000000000001" style="transform:matrix(1, 0, 0, 1, 0, 93.4612);opacity:0.72;animation-play-state:paused" ></circle>
<circle cx="758.449274194001" cy="0" transform="matrix(1,0,0,1,0,325.4526672363281)" r="10.471921588950636" fill="#bbddff" opacity="0.36000000000000004" style="transform:matrix(1, 0, 0, 1, 0, 325.453);opacity:0.36;animation-play-state:paused" ></circle>
<circle cx="1050.0081657431354" cy="0" transform="matrix(1,0,0,1,0,64.11492919921875)" r="13.093329541678868" fill="#bbddff" opacity="0.63" style="transform:matrix(1, 0, 0, 1, 0, 64.1149);opacity:0.63;animation-play-state:paused" ></circle>
<circle cx="1553.840387301543" cy="0" transform="matrix(1,0,0,1,0,570.0780029296875)" r="20.546299055134128" fill="#ddeeff" opacity="0.7200000000000001" style="transform:matrix(1, 0, 0, 1, 0, 570.078);opacity:0.72;animation-play-state:paused" ></circle>
<circle cx="328.6594628893846" cy="0" transform="matrix(1,0,0,1,0,578.44482421875)" r="8.716257325090652" fill="#bbddff" opacity="0.36000000000000004" style="transform:matrix(1, 0, 0, 1, 0, 578.445);opacity:0.36;animation-play-state:paused" ></circle>
<circle cx="1555.2373468204758" cy="0" transform="matrix(1,0,0,1,0,539.9803466796875)" r="22.47110088473694" fill="#ddeeff" opacity="0.7200000000000001" style="transform:matrix(1, 0, 0, 1, 0, 539.98);opacity:0.72;animation-play-state:paused" ></circle>
<circle cx="1553.5451727122615" cy="0" transform="matrix(1,0,0,1,0,659.365234375)" r="22.11392836776858" fill="#bbddff" opacity="0.7200000000000001" style="transform:matrix(1, 0, 0, 1, 0, 659.365);opacity:0.72;animation-play-state:paused" ></circle>
<circle cx="457.32771111356016" cy="0" transform="matrix(1,0,0,1,0,392.282470703125)" r="9.641534390968213" fill="#ddeeff" opacity="0.36000000000000004" style="transform:matrix(1, 0, 0, 1, 0, 392.282);opacity:0.36;animation-play-state:paused" ></circle>
<circle cx="54.44136997226705" cy="0" transform="matrix(1,0,0,1,0,322.0817565917969)" r="16.953132009761525" fill="#ddeeff" opacity="0.63" style="transform:matrix(1, 0, 0, 1, 0, 322.082);opacity:0.63;animation-play-state:paused" ></circle>
<circle cx="1071.6218882378366" cy="0" transform="matrix(1,0,0,1,0,300.2006530761719)" r="14.180827775288043" fill="#ddeeff" opacity="0.63" style="transform:matrix(1, 0, 0, 1, 0, 300.201);opacity:0.63;animation-play-state:paused" ></circle>
<circle cx="44.803782956244106" cy="0" transform="matrix(1,0,0,1,0,45.24676513671875)" r="14.427098959163477" fill="#bbddff" opacity="0.63" style="transform:matrix(1, 0, 0, 1, 0, 45.2468);opacity:0.63;animation-play-state:paused" ></circle>
<circle cx="1247.4277170974929" cy="0" transform="matrix(1,0,0,1,0,500.9643859863281)" r="8.614702045632637" fill="#ddeeff" opacity="0.36000000000000004" style="transform:matrix(1, 0, 0, 1, 0, 500.964);opacity:0.36;animation-play-state:paused" ></circle></g></svg>